<svg xmlns="http://www.w3.org/2000/svg" viewBox="0 0 700 260" font-family="IBM Plex Sans KR, sans-serif">
  <rect width="700" height="260" fill="#f7f1e6"/>
  <line x1="240" y1="40" x2="240" y2="230" stroke="#b08948" stroke-width="1" stroke-dasharray="3 5"/>
  <line x1="470" y1="40" x2="470" y2="230" stroke="#b08948" stroke-width="1" stroke-dasharray="3 5"/>
  <!-- 장악형 -->
  <line x1="73" y1="118" x2="73" y2="178" stroke="#8f3d3a" stroke-width="2.4"/>
  <rect x="60" y="130" width="26" height="34" fill="#8f3d3a"/>
  <line x1="117" y1="85" x2="117" y2="205" stroke="#2c5a4c" stroke-width="2.4"/>
  <rect x="100" y="95" width="34" height="100" fill="#2c5a4c"/>
  <line x1="55" y1="130" x2="145" y2="130" stroke="#b08948" stroke-width="1.2" stroke-dasharray="4 4"/>
  <line x1="55" y1="164" x2="145" y2="164" stroke="#b08948" stroke-width="1.2" stroke-dasharray="4 4"/>
  <text x="105" y="245" fill="#4a453c" font-size="11" text-anchor="middle">장악형 · engulfing</text>
  <!-- 하라미 -->
  <line x1="307" y1="75" x2="307" y2="205" stroke="#2c5a4c" stroke-width="2.4"/>
  <rect x="290" y="85" width="34" height="110" fill="#2c5a4c"/>
  <line x1="357" y1="110" x2="357" y2="172" stroke="#8f3d3a" stroke-width="2.4"/>
  <rect x="345" y="120" width="24" height="40" fill="#8f3d3a"/>
  <line x1="285" y1="85" x2="375" y2="85" stroke="#b08948" stroke-width="1.2" stroke-dasharray="4 4"/>
  <line x1="285" y1="195" x2="375" y2="195" stroke="#b08948" stroke-width="1.2" stroke-dasharray="4 4"/>
  <text x="330" y="245" fill="#4a453c" font-size="11" text-anchor="middle">하라미 · harami / 인사이드바</text>
  <!-- 트위저 -->
  <line x1="535" y1="95" x2="535" y2="190" stroke="#2c5a4c" stroke-width="2.4"/>
  <rect x="520" y="110" width="30" height="70" fill="#2c5a4c"/>
  <line x1="590" y1="95" x2="590" y2="190" stroke="#8f3d3a" stroke-width="2.4"/>
  <rect x="575" y="115" width="30" height="65" fill="#8f3d3a"/>
  <line x1="505" y1="95" x2="620" y2="95" stroke="#b08948" stroke-width="1.2" stroke-dasharray="4 4"/>
  <text x="505" y="88" fill="#4a453c" font-size="11">같은 고점 · equal highs</text>
  <text x="560" y="245" fill="#4a453c" font-size="11" text-anchor="middle">트위저 · tweezers</text>
</svg>
