<svg xmlns="http://www.w3.org/2000/svg" viewBox="0 0 720 310" font-family="IBM Plex Sans KR, sans-serif">
  <rect width="720" height="310" fill="#f7f1e6"/>
  <text x="24" y="26" font-size="12" fill="#8a7f70" letter-spacing="0.4">CONTINUATION · 지속과 양방향 — 방향은 깨지는 쪽이 정한다</text>

  <text x="24" y="54" fill="#4a453c" font-size="13">상승 삼각 · ascending</text>
  <text x="24" y="72" fill="#8a7f70" font-size="11">수평 저항 + 높아지는 저점</text>
  <line x1="28" y1="108" x2="196" y2="108" stroke="#8f3d3a" stroke-width="1.6"/>
  <line x1="28" y1="220" x2="196" y2="148" stroke="#2c5a4c" stroke-width="1.6"/>
  <text x="28" y="100" fill="#8f3d3a" font-size="10">저항 · resistance</text>
  <text x="36" y="242" fill="#2c5a4c" font-size="10">높아지는 저점</text>
  <path d="M40 206 L68 114 L98 176 L128 112 L156 154 L184 116" fill="none" stroke="#4a453c" stroke-width="2.2" stroke-linejoin="round" stroke-linecap="round"/>
  <path d="M184 116 L214 78" fill="none" stroke="#2c5a4c" stroke-width="1.7" stroke-dasharray="4 3" stroke-linecap="round"/>
  <path d="M168 150 L206 198" fill="none" stroke="#8f3d3a" stroke-width="1.7" stroke-dasharray="4 3" stroke-linecap="round"/>
  <text x="216" y="82" fill="#2c5a4c" font-size="10">상방</text>
  <text x="208" y="214" fill="#8f3d3a" font-size="10">하방</text>
  <text x="24" y="272" fill="#4a453c" font-size="11">점선은 가능한 이탈</text>
  <text x="24" y="290" fill="#8a7f70" font-size="10">안으로 복귀하면 가짜 돌파</text>

  <text x="262" y="54" fill="#4a453c" font-size="13">깃발 · flag</text>
  <text x="262" y="72" fill="#8a7f70" font-size="11">깃대 뒤의 역기울기 channel</text>
  <line x1="350" y1="108" x2="450" y2="140" stroke="#b08948" stroke-width="1.3" stroke-dasharray="5 4"/>
  <line x1="364" y1="128" x2="464" y2="160" stroke="#b08948" stroke-width="1.3" stroke-dasharray="5 4"/>
  <path d="M278 236 L314 170 L346 104" fill="none" stroke="#2c5a4c" stroke-width="2.4" stroke-linejoin="round" stroke-linecap="round"/>
  <path d="M346 104 L372 131 L400 124 L428 148" fill="none" stroke="#4a453c" stroke-width="2.2" stroke-linejoin="round" stroke-linecap="round"/>
  <path d="M428 148 L456 112 L492 74" fill="none" stroke="#2c5a4c" stroke-width="2.4" stroke-linejoin="round" stroke-linecap="round"/>
  <text x="286" y="154" fill="#2c5a4c" font-size="11">깃대 · pole</text>
  <text x="378" y="178" fill="#4a453c" font-size="11">깃발 · flag</text>
  <text x="456" y="66" fill="#2c5a4c" font-size="11">상단 이탈</text>
  <text x="262" y="272" fill="#4a453c" font-size="11">확인은 channel 상단</text>
  <text x="262" y="290" fill="#8a7f70" font-size="10">하단 이탈·깊은 조정은 실패</text>

  <text x="520" y="54" fill="#4a453c" font-size="13">확산형 · broadening</text>
  <text x="520" y="72" fill="#8a7f70" font-size="11">고점은 높고 저점은 낮다</text>
  <line x1="524" y1="150" x2="692" y2="78" stroke="#8f3d3a" stroke-width="1.5"/>
  <line x1="524" y1="162" x2="692" y2="236" stroke="#2c5a4c" stroke-width="1.5"/>
  <path d="M534 156 L558 136 L586 186 L618 112 L648 214 L684 86" fill="none" stroke="#4a453c" stroke-width="2.2" stroke-linejoin="round" stroke-linecap="round"/>
  <text x="520" y="272" fill="#4a453c" font-size="11">경계가 멀어진다</text>
  <text x="520" y="290" fill="#8a7f70" font-size="10">진입보다 회피에 가깝다</text>
</svg>
